<svg preserveAspectRatio="none" width="100%" height="100%" overflow="visible" style="display: block;" viewBox="0 0 1259.7 1135.73" fill="none" xmlns="http://www.w3.org/2000/svg">
<path id="Vector" d="M629.848 0C282.19 0 0 254.419 0 567.864C0 881.309 282.19 1135.73 629.848 1135.73C977.506 1135.73 1259.7 881.309 1259.7 567.864C1259.7 254.419 977.506 0 629.848 0ZM629.848 925.578C543.498 925.578 463.921 900.645 399.017 858.411L182.295 933.719L279.933 735.781C250.02 685.915 233.089 628.416 233.089 567.864C233.089 370.435 410.869 210.15 629.848 210.15C848.828 210.15 1026.61 370.435 1026.61 567.864C1026.61 765.294 848.828 925.578 629.848 925.578V925.578Z" fill="var(--fill-0, #9DBDBE)"/>
</svg>
