<svg preserveAspectRatio="none" width="100%" height="100%" overflow="visible" style="display: block;" viewBox="0 0 12 16" fill="none" xmlns="http://www.w3.org/2000/svg">
<path id="Vector" fill-rule="evenodd" clip-rule="evenodd" d="M7.99397 4.54605V3.45151C7.99397 3.45151 8.10256 2.85274 8.69985 2.85274C9.29713 2.85274 9.37557 3.32918 9.37557 3.64467C9.37557 3.96015 9.38763 4.53961 7.99397 4.53961V4.54605ZM5.1644 10.038H3.71644C3.00452 10.038 2.84766 9.25897 2.8175 8.89842C2.8356 7.87471 3.31825 7.46265 3.8371 7.46265H5.17044V10.038H5.1644ZM10.9864 0.985598C10.0573 0.0327117 8.89291 -0.00591883 8.59125 0.000519594C7.27602 0.000519594 6.4917 0.567101 6.05732 1.03711C5.20664 1.96424 5.1644 3.11672 5.1644 3.40001V4.45591H3.73454C3.69231 4.45591 3.65008 4.45591 3.60784 4.45591C2.15385 4.59755 0 5.91099 0 8.94993C0 8.97568 0 9.00787 0 9.03363C0.0844646 10.6497 1.1463 13.0512 3.71644 13.0512H5.1644V16H7.9819V13.0512H10.4314V10.038H7.9819V7.46265H8.54299C8.88688 7.47553 10.0513 7.46265 10.9623 6.56771C11.4329 6.10414 12 5.24783 12 3.77987C12 2.31191 11.451 1.4556 10.9864 0.97916V0.985598Z" fill="var(--fill-0, #231916)"/>
</svg>
