<svg preserveAspectRatio="none" width="100%" height="100%" overflow="visible" style="display: block;" viewBox="0 0 240 71.322" fill="none" xmlns="http://www.w3.org/2000/svg">
<g id="Group">
<path id="Vector" d="M56.9378 1.62964H95.7258V15.1144H70.3988V28.631H95.7258V42.1157H70.3988V56.3034H95.7258V69.7881H56.9378V1.62964Z" fill="var(--fill-0, white)"/>
<path id="Vector_2" d="M46.5391 27.0013C46.5391 13.0054 35.2153 1.62964 21.2121 1.62964H0V15.1144H21.1483C27.6874 15.1144 33.0144 20.4188 33.0144 27.0013C33.0144 33.5839 27.7193 38.8883 21.1483 38.8883H0V69.8201H13.4609V52.405H21.2121C22.1372 52.405 23.0622 52.3411 23.9873 52.2452L31.8023 69.8201H46.5391L36.4913 47.2284C42.5838 42.595 46.5391 35.2775 46.5391 27.0013V27.0013Z" fill="var(--fill-0, white)"/>
<g id="Group_2">
<path id="Vector_3" d="M204.402 0C184.753 0 168.804 15.9771 168.804 35.661C168.804 55.3448 184.753 71.322 204.402 71.322C224.051 71.322 240 55.3448 240 35.661C240 15.9771 224.051 0 204.402 0ZM204.402 58.1248C199.521 58.1248 195.024 56.5591 191.356 53.9069L179.107 58.6361L184.625 46.2059C182.935 43.0744 181.978 39.4635 181.978 35.661C181.978 23.2627 192.025 13.1971 204.402 13.1971C216.778 13.1971 226.826 23.2627 226.826 35.661C226.826 48.0592 216.778 58.1248 204.402 58.1248V58.1248Z" fill="var(--fill-0, white)"/>
<path id="Vector_4" d="M206.125 39.6872L206.954 23.9657H202.01L202.807 39.6872H206.125Z" fill="var(--fill-0, white)"/>
<path id="Vector_5" d="M204.498 42.4992C202.935 42.4992 201.786 43.6495 201.786 45.0875C201.786 46.5254 202.935 47.7077 204.498 47.7077C206.061 47.7077 207.145 46.5254 207.145 45.0875C207.145 43.6495 206.029 42.4992 204.498 42.4992Z" fill="var(--fill-0, white)"/>
</g>
<path id="Vector_6" d="M144.976 1.59763V48.4107L124.179 1.59763H119.617H109.378H106.125V69.7881H119.617V24.5728L139.745 69.7881H144.976H154.482H158.469V1.59763H144.976Z" fill="var(--fill-0, white)"/>
</g>
</svg>
