<svg preserveAspectRatio="none" width="100%" height="100%" overflow="visible" style="display: block;" viewBox="0 0 240 17.1731" fill="none" xmlns="http://www.w3.org/2000/svg">
<g id="Group">
<path id="Vector" d="M0 8.58657C0 3.60186 3.82022 1.63913e-06 8.92456 1.63913e-06C11.6212 1.63913e-06 13.9647 0.964787 15.5056 2.79787L13.5152 4.69528C12.2953 3.37674 10.8186 2.73355 9.05297 2.73355C5.61798 2.73355 3.11396 5.17767 3.11396 8.58657C3.11396 11.9955 5.61798 14.4396 9.05297 14.4396C10.7865 14.4396 12.2953 13.7964 13.5152 12.4779L15.5056 14.3753C13.9647 16.1762 11.6212 17.1731 8.89246 17.1731C3.78812 17.1731 0 13.5713 0 8.58657V8.58657Z" fill="var(--fill-0, white)"/>
<path id="Vector_2" d="M16.9182 8.58657C16.9182 3.66618 20.7384 1.63913e-06 25.8748 1.63913e-06C31.0113 1.63913e-06 34.8315 3.63402 34.8315 8.58657C34.8315 13.5391 31.0113 17.1731 25.8748 17.1731C20.7384 17.1731 16.9182 13.5391 16.9182 8.58657V8.58657ZM31.7175 8.58657C31.7175 5.17767 29.2135 2.73355 25.8748 2.73355C22.5361 2.73355 20.0321 5.17767 20.0321 8.58657C20.0321 11.9955 22.5361 14.4396 25.8748 14.4396C29.2135 14.4396 31.7175 11.9955 31.7175 8.58657Z" fill="var(--fill-0, white)"/>
<path id="Vector_3" d="M53.4512 16.9158V5.85292L47.9616 14.9862H46.5812L41.1237 5.98156V16.8836H38.1703V0.192867H40.7064L47.3196 11.2557L53.8043 0.192867H56.3404V16.8836H53.4512V16.9158Z" fill="var(--fill-0, white)"/>
<path id="Vector_4" d="M76.148 16.9158V5.85292L70.6584 14.9862H69.278L63.8205 5.98156V16.8836H60.8671V0.192867H63.4032L70.0163 11.2557L76.5011 0.192867H79.0372V16.8836H76.148V16.9158Z" fill="var(--fill-0, white)"/>
<path id="Vector_5" d="M83.4352 9.64773V0.225021H86.5171V9.5191C86.5171 12.9602 88.058 14.4395 90.7546 14.4395C93.4513 14.4395 94.9601 12.9602 94.9601 9.5191V0.225021H98.0098V9.64773C98.0098 14.5038 95.2811 17.1409 90.7225 17.1409C86.1639 17.1409 83.4352 14.5038 83.4352 9.64773Z" fill="var(--fill-0, white)"/>
<path id="Vector_6" d="M117.111 0.225021V16.9158H114.575L105.393 5.6278V16.9158H102.312V0.225021H104.848L114.029 11.513V0.225021H117.111Z" fill="var(--fill-0, white)"/>
<path id="Vector_7" d="M121.605 0.225021H124.687V16.9158H121.605V0.225021V0.225021Z" fill="var(--fill-0, white)"/>
<path id="Vector_8" d="M128.379 8.58657C128.379 3.60186 132.199 1.63913e-06 137.303 1.63913e-06C140 1.63913e-06 142.343 0.964787 143.884 2.79787L141.894 4.69528C140.674 3.37674 139.197 2.73355 137.432 2.73355C133.997 2.73355 131.493 5.17767 131.493 8.58657C131.493 11.9955 133.997 14.4396 137.432 14.4396C139.165 14.4396 140.674 13.7964 141.894 12.4779L143.884 14.3753C142.343 16.1762 140 17.1731 137.271 17.1731C132.167 17.1731 128.379 13.5713 128.379 8.58657V8.58657Z" fill="var(--fill-0, white)"/>
<path id="Vector_9" d="M159.358 13.0566H151.044L149.406 16.9158H146.228L153.708 0.225021H156.758L164.27 16.9158H161.027L159.358 13.0566ZM158.331 10.6125L155.185 3.31233L152.071 10.6125H158.331V10.6125Z" fill="var(--fill-0, white)"/>
<path id="Vector_10" d="M168.925 2.86215H163.403V0.257235H177.528V2.86215H172.007V16.9158H168.925V2.86215V2.86215Z" fill="var(--fill-0, white)"/>
<path id="Vector_11" d="M180.899 0.225021H183.981V16.9158H180.899V0.225021V0.225021Z" fill="var(--fill-0, white)"/>
<path id="Vector_12" d="M187.32 8.58657C187.32 3.66618 191.14 1.63913e-06 196.276 1.63913e-06C201.413 1.63913e-06 205.233 3.63402 205.233 8.58657C205.233 13.5391 201.413 17.1731 196.276 17.1731C191.14 17.1731 187.32 13.5391 187.32 8.58657V8.58657ZM202.119 8.58657C202.119 5.17767 199.615 2.73355 196.276 2.73355C192.937 2.73355 190.433 5.17767 190.433 8.58657C190.433 11.9955 192.937 14.4396 196.276 14.4396C199.615 14.4396 202.119 11.9955 202.119 8.58657Z" fill="var(--fill-0, white)"/>
<path id="Vector_13" d="M223.306 0.225021V16.9158H220.77L211.589 5.6278V16.9158H208.507V0.225021H211.043L220.225 11.513V0.225021H223.306Z" fill="var(--fill-0, white)"/>
<path id="Vector_14" d="M226.709 15.1471L227.769 12.7351C229.085 13.7964 231.204 14.5682 233.258 14.5682C235.859 14.5682 236.95 13.6356 236.95 12.4135C236.95 8.81168 227.063 11.1593 227.063 4.98471C227.063 2.28332 229.213 1.63913e-06 233.772 1.63913e-06C235.762 1.63913e-06 237.849 0.514555 239.326 1.47934L238.363 3.89129C236.854 3.02299 235.217 2.57276 233.772 2.57276C231.204 2.57276 230.144 3.5697 230.144 4.82391C230.144 8.36145 240 6.07813 240 12.1884C240 14.8577 237.849 17.141 233.258 17.141C230.658 17.141 228.09 16.337 226.709 15.1471V15.1471Z" fill="var(--fill-0, white)"/>
</g>
</svg>
