<svg preserveAspectRatio="none" width="100%" height="100%" overflow="visible" style="display: block;" viewBox="0 0 20 20.4945" fill="none" xmlns="http://www.w3.org/2000/svg">
<path id="download" d="M2.30768 20.4945C1.65018 20.4945 1.10119 20.2743 0.660714 19.8338C0.220238 19.3933 0 18.8443 0 18.1868V14.7802H1.42857V18.1868C1.42857 18.4066 1.52014 18.608 1.70329 18.7912C1.88645 18.9744 2.08792 19.0659 2.30768 19.0659H17.6923C17.9121 19.0659 18.1135 18.9744 18.2967 18.7912C18.4799 18.608 18.5714 18.4066 18.5714 18.1868V14.7802H20V18.1868C20 18.8443 19.7798 19.3933 19.3393 19.8338C18.8988 20.2743 18.3498 20.4945 17.6923 20.4945H2.30768ZM10 15.1099L4.94504 10.0549L5.95604 9.02746L9.28571 12.3571V0H10.7143V12.3571L14.044 9.02746L15.055 10.0549L10 15.1099Z" fill="var(--fill-0, #101820)"/>
</svg>
