<svg preserveAspectRatio="xMidYMid meet" width="100%" height="100%" overflow="visible" style="display: block;" viewBox="0 0 280 38" fill="none" xmlns="http://www.w3.org/2000/svg">
<g id="Isolation_Mode">
<path id="Vector" d="M82.519 16.7549H73.3878V7.12216H68.5536V30.8778H73.3878V21.2754H82.519V30.8778H87.3456V7.12216H82.519V16.7549Z" fill="var(--fill-0, #999999)"/>
<path id="Vector_2" d="M101.089 6.59122C96.3694 6.59122 91.2973 9.05629 91.2973 14.4794V23.5281C91.2973 28.9437 96.3924 31.4164 101.127 31.4164C105.861 31.4164 110.926 28.9513 110.926 23.5281V14.4794C110.926 9.06387 105.831 6.59122 101.096 6.59122M106.13 23.5281C106.13 25.9022 103.613 27.1461 101.127 27.1461C98.1573 27.1461 96.0855 25.6595 96.0855 23.5281V14.4794C96.0855 12.0371 98.564 10.7553 101.019 10.7553C104.027 10.7553 106.13 12.2874 106.13 14.4794V23.5281Z" fill="var(--fill-0, #999999)"/>
<path id="Vector_3" d="M202.277 16.7549H193.146V7.12216H188.311V30.8778H193.146V21.2754H202.277V30.8778H207.103V7.12216H202.277V16.7549Z" fill="var(--fill-0, #999999)"/>
<path id="Vector_4" d="M220.869 6.59122C216.15 6.59122 211.07 9.05629 211.07 14.4794V23.5281C211.07 28.9437 216.166 31.4164 220.9 31.4164C225.634 31.4164 230.699 28.9513 230.699 23.5281V14.4794C230.699 9.06387 225.604 6.59122 220.869 6.59122ZM225.911 23.5281C225.911 25.9022 223.394 27.1461 220.908 27.1461C217.938 27.1461 215.866 25.6595 215.866 23.5281V14.4794C215.866 12.0371 218.345 10.7553 220.8 10.7553C223.808 10.7553 225.911 12.2874 225.911 14.4794V23.5281Z" fill="var(--fill-0, #999999)"/>
<path id="Vector_5" d="M239.285 7.12216H234.497V30.8703H239.285V7.12216Z" fill="var(--fill-0, #999999)"/>
<path id="Vector_6" d="M125.935 20.0088L119.95 7.12216H114.87V30.8778H119.696V19.8571L119.412 16.5425L124.415 27.1006H125.935H127.454L132.457 16.5425L132.173 19.8571V30.8778H137V7.12216H131.912L125.935 20.0088Z" fill="var(--fill-0, #999999)"/>
<path id="Vector_7" d="M141.895 7.12216V30.8778H158.101V26.5317H146.722V21.1162H157.196V16.9218H146.722V11.4683H158.101V7.12216H141.895Z" fill="var(--fill-0, #999999)"/>
<path id="Vector_8" d="M280 11.4683V7.12216H263.794V30.8778H280V26.5317H268.62V21.1162H279.095V16.9218H268.62V11.4683H280Z" fill="var(--fill-0, #999999)"/>
<path id="Vector_9" d="M176.978 10.7477C179.364 10.7477 181.037 11.62 182.058 13.5162L185.549 11.1269C183.769 7.93373 180.63 6.58363 177.055 6.58363C172.335 6.58363 167.655 9.0487 167.655 14.4719V23.5206C167.655 28.9361 172.335 31.4088 177.055 31.4088C180.63 31.4088 183.769 30.0663 185.549 26.8655L182.058 24.4762C181.037 26.3649 179.364 27.2447 176.978 27.2447C174.591 27.2447 172.443 25.9629 172.443 23.5206V14.4719C172.443 12.0295 174.522 10.7477 176.978 10.7477Z" fill="var(--fill-0, #999999)"/>
<path id="Vector_10" d="M252.46 10.7477C254.854 10.7477 256.52 11.62 257.54 13.5162L261.032 11.1269C259.251 7.93373 256.113 6.58363 252.537 6.58363C247.818 6.58363 243.137 9.0487 243.137 14.4719V23.5206C243.137 28.9361 247.818 31.4088 252.537 31.4088C256.113 31.4088 259.251 30.0663 261.032 26.8655L257.54 24.4762C256.512 26.3649 254.847 27.2447 252.46 27.2447C250.074 27.2447 247.925 25.9629 247.925 23.5206V14.4719C247.925 12.0295 250.005 10.7477 252.46 10.7477Z" fill="var(--fill-0, #999999)"/>
<path id="Vector_11" d="M25.6289 26.4559C20.0811 26.4559 14.6714 26.8579 9.48424 27.6619V10.3305L4.74212 4.68743H0V33.3126C0 34.7309 0.652233 36.081 1.77254 36.9685C2.89285 37.8559 4.36613 38.1972 5.77035 37.8862C12.0011 36.521 18.6846 35.8307 25.6289 35.8307C28.8594 35.8307 32.0362 35.99 35.1362 36.2858V26.8882C32.0208 26.6152 28.8517 26.4635 25.6289 26.4635" fill="var(--fill-0, #CCCCCC)"/>
<path id="Vector_12" d="M49.4853 1.03154C48.365 0.144112 46.8918 -0.197206 45.4952 0.113772C39.2645 1.47904 32.581 2.16926 25.6289 2.16926C18.6769 2.16926 12.0011 1.47904 5.77035 0.113772L4.74212 4.68742L9.48424 10.3305C14.6714 11.1345 20.0811 11.5441 25.6289 11.5441C31.1768 11.5441 36.5865 11.1421 41.7736 10.3381V37.105H51.2579V4.68742C51.2579 3.26906 50.6056 1.91896 49.4853 1.03154Z" fill="var(--fill-0, #C1C1C1)"/>
<path id="Vector_13" d="M9.48424 4.68743C9.48424 2.101 7.35873 0 4.74212 0C2.12551 0 0 2.101 0 4.68743C0 6.93253 1.59605 8.7984 3.72157 9.26108C3.72157 9.26108 7.52754 10.0347 9.48424 10.3305V4.67984V4.68743Z" fill="var(--fill-0, #999999)"/>
</g>
</svg>
