<svg preserveAspectRatio="xMidYMid meet" width="100%" height="100%" overflow="visible" style="display: block;" viewBox="0 0 202.966 65" fill="none" xmlns="http://www.w3.org/2000/svg">
<g id="Group 46">
<path id="Vector" d="M202.966 7.0221H197.491V35.2136H202.966V7.0221Z" fill="var(--fill-0, #999999)"/>
<path id="Vector_2" d="M191.144 16.1922H185.656V27.7929H191.144V16.1922Z" fill="var(--fill-0, #999999)"/>
<path id="Vector_3" d="M178.757 0H173.282V23.5744H178.757V0Z" fill="var(--fill-0, #999999)"/>
<g id="Group">
<path id="Vector_4" d="M4.78933 60.7816C1.70199 58.0293 0 53.9395 0 49.2838C0.0527749 39.265 7.73153 32.8087 19.5663 32.8087C23.6828 32.8087 26.8756 33.4903 28.6964 34.172C28.4985 34.8665 27.5221 38.339 27.2978 39.1364C25.0945 38.3004 22.6668 37.8888 19.5135 37.8888C11.9931 37.8888 7.30933 42.1073 7.30933 48.9108C7.30933 55.7143 11.8744 60.0742 18.933 60.0742C20.6614 60.0742 22.2446 59.8942 22.9835 59.5984L23.3133 59.4698V51.7788H17.8907V47.0459H29.9498V63.2895C27.1527 64.1383 22.8647 65 18.7219 65C12.5604 65 7.9954 63.611 4.77613 60.7816" fill="var(--fill-0, #999999)"/>
<path id="Vector_5" d="M48.0866 60.3572C52.1239 60.3572 54.4328 56.8461 54.4328 52.0618C54.4328 47.6762 52.2031 43.895 48.0866 43.895C43.9702 43.895 41.6613 47.599 41.6613 52.1647C41.6613 56.7304 44.0625 60.3572 48.0602 60.3572H48.0998H48.0866ZM47.8096 64.7428C40.0121 64.7428 35.3811 59.264 35.3811 52.3062C35.3811 44.9882 40.4738 39.5094 48.2318 39.5094C55.9897 39.5094 60.779 45.1297 60.779 51.8817C60.779 59.9328 55.5675 64.7557 47.8359 64.7557H47.7964L47.8096 64.7428Z" fill="var(--fill-0, #999999)"/>
</g>
<path id="Vector_6" d="M66.6824 40.3067H72.6459V60.0999H84.705V64.7427H66.6824V40.3067Z" fill="var(--fill-0, #999999)"/>
<path id="Vector_7" d="M90.7983 40.3067H109.23V44.8338H96.7487V50.4155H108.57V54.9169H96.7487V64.7427H90.7983V40.3067Z" fill="var(--fill-0, #999999)"/>
<path id="Vector_8" d="M113.453 61.7718L126.04 44.9881V44.8723H114.588V40.3067H133.758V43.4962L121.448 60.0356V60.1771H133.956V64.7427H113.453V61.7718Z" fill="var(--fill-0, #999999)"/>
<path id="Vector_9" d="M150.482 60.3572C154.519 60.3572 156.828 56.8461 156.828 52.0617C156.828 47.6761 154.598 43.8949 150.482 43.8949C146.365 43.8949 144.056 47.5989 144.056 52.1646C144.056 56.7303 146.444 60.3572 150.442 60.3572H150.482ZM150.205 64.7428C142.407 64.7428 137.776 59.264 137.776 52.3061C137.776 44.9881 142.869 39.5093 150.627 39.5093C158.385 39.5093 163.161 45.1296 163.161 51.8817C163.161 59.9327 157.949 64.7556 150.231 64.7556H150.191L150.205 64.7428Z" fill="var(--fill-0, #999999)"/>
<path id="Vector_10" d="M168.525 64.7428V40.3067H175.504L185.584 57.6306H185.663V32.4357H191.139V64.7428H184.41L173.895 46.6858H173.934L173.921 64.7428H168.525Z" fill="var(--fill-0, #999999)"/>
</g>
</svg>
