<svg preserveAspectRatio="xMidYMid meet" overflow="visible" style="display: block;" viewBox="0 0 229.637 27.9999" fill="none" xmlns="http://www.w3.org/2000/svg">
<g id="Group 38">
<path id="Vector" d="M107.687 14.8185C107.687 14.8185 109.185 11.1421 109.836 10.0907C109.836 10.0907 111.658 12.7086 112.309 14.8467C112.309 14.8467 110.242 15.1925 107.687 14.8115M64.8079 12.0312V7.88908C64.8079 7.88908 64.8486 4.81247 67.1999 4.81247C69.5512 4.81247 69.2463 7.80441 69.2734 8.19251C69.287 8.57356 69.1447 12.0312 64.8079 12.0312ZM72.1397 1.68646C72.1397 1.68646 60.7151 2.57558 54.5556 1.98284C54.5556 1.98284 53.8238 1.7782 53.6273 2.6532C53.6273 2.6532 53.2207 3.33062 53.8712 3.78929C54.5149 4.26207 56.3784 5.39816 56.3784 9.61791V17.7681C56.3784 17.7681 56.7443 22.2348 53.7831 23.9213C53.7831 23.9213 53.1733 24.1401 53.4985 25.0151C53.4985 25.0151 53.5392 25.8266 54.3862 25.6996C55.24 25.5725 60.024 25.1915 66.5833 25.6572C66.5833 25.6572 67.1525 25.6996 67.3151 25.3256C67.471 24.9445 67.5184 24.9092 67.5184 24.9092C67.5184 24.9092 68.0876 24.3094 67.2338 23.7238C66.3868 23.1381 64.9638 22.2419 64.8418 18.4879C64.7198 14.7338 64.8418 14.6492 64.8418 14.6492H65.3704C65.3704 14.6492 67.1931 14.4869 68.4061 17.3518C68.4061 17.3518 70.7574 23.258 71.1233 23.9778C71.4825 24.6975 72.1736 26.2147 74.7282 25.9606C77.2828 25.7066 89.1954 24.8175 101.84 26.003C101.84 26.003 103.222 26.2147 103.744 24.8175C103.744 24.8175 105.932 18.6996 106.461 17.7258C106.461 17.7258 111.076 17.6058 113.59 17.6411C113.59 17.6411 114.525 19.2852 114.525 21.2681C114.525 23.251 112.864 23.7167 112.864 23.7167C112.864 23.7167 112.173 24.006 112.499 24.9022C112.499 24.9022 112.621 25.7419 113.427 25.6502C114.24 25.5655 121.491 24.8528 132.434 25.5655C132.434 25.5655 133.166 25.8619 133.41 24.8528C133.41 24.8528 133.857 24.0483 133.085 23.6602C133.085 23.6602 130.205 22.9899 130.205 18.2197C130.205 13.4496 130.245 10.0766 130.245 10.0766C130.245 10.0766 132.434 13.3225 135.023 18.1844C137.618 23.0322 138.993 25.1068 138.993 25.1068C138.993 25.1068 140.288 27.7177 142.842 26.3276C145.397 24.9375 148.155 23.3357 149.734 22.1925C149.734 22.1925 150.337 21.8891 150.011 21.0917L149.774 20.5836C149.774 20.5836 149.734 20.2873 148.88 20.2026C148.88 20.2026 146.976 20.6683 146.935 17.8387C146.894 15.009 146.772 11.008 146.935 6.90824C146.935 6.90824 147.016 4.38203 149.239 3.66227C149.239 3.66227 150.045 3.58465 149.686 2.56852L149.442 2.0534C149.442 2.0534 149.442 1.63707 148.88 1.72175C148.311 1.80642 145.153 2.1028 141.785 1.80642C141.785 1.80642 141.06 1.80642 140.972 2.64614C140.972 2.64614 140.769 3.40824 141.338 3.66227C141.907 3.9163 143.893 4.6784 144.015 7.93142C144.13 11.1774 144.177 15.6865 144.177 15.6865C144.177 15.6865 139.556 8.60178 136.595 3.16126C136.595 3.16126 136.107 1.68646 134.365 1.81348C132.624 1.93344 128.45 2.15219 125.407 1.85582C125.407 1.85582 124.553 1.7288 124.431 2.73788C124.431 2.73788 124.187 3.61993 124.919 4.00804C124.919 4.00804 127.352 5.60985 127.352 6.16025C127.352 6.71066 127.311 17.9304 127.311 17.9304C127.311 17.9304 127.508 22.5312 126.336 21.9455C126.336 21.9455 125.644 22.4042 123.984 19.2359C122.317 16.0675 120.169 11.5584 116.686 2.78021C116.686 2.78021 115.954 0.331626 114.457 0.331626C114.457 0.331626 113.562 0.373965 112.634 0.917312C111.706 1.46771 108.745 3.2036 105.661 4.128C105.661 4.128 104.855 4.38203 105.099 5.2288C105.099 5.2288 104.977 5.85683 105.865 6.19554C106.759 6.5413 107.525 6.90824 107.769 7.37396C107.769 7.37396 106.84 10.5 105.14 13.7107C103.432 16.9143 101.25 22.2348 94.9686 22.2348H92.5021C92.5021 22.2348 91.8516 22.3195 91.8516 21.3881V14.5998H93.4711C93.4711 14.5998 96.1003 14.0141 97.3606 17.5564C97.3606 17.5564 97.5978 18.6572 98.499 18.2268C98.499 18.2268 99.5087 18.1068 99.4274 17.0484C99.346 15.9969 99.2647 13.125 99.468 10.5917C99.468 10.5917 99.5493 9.83666 98.7362 9.66731C98.7362 9.66731 98.0925 9.3286 97.5978 9.879C97.1167 10.4223 96.1003 11.7348 93.7964 11.7348C91.4925 11.7348 91.8855 11.7348 91.8855 11.7348V5.40521C91.8855 5.40521 91.8516 4.98183 92.1362 4.93949C92.414 4.89715 95.9444 4.00804 98.0111 5.74392C100.078 7.47981 100.2 8.19251 100.647 8.82053C100.647 8.82053 101.047 9.879 102.104 9.15219C102.104 9.15219 102.917 9.03223 102.511 7.71973C102.104 6.40723 101.982 5.94856 101.298 2.6532C101.298 2.6532 101.176 1.26308 99.8 1.39009C98.4245 1.51005 89.7916 2.57558 81.6806 1.8911C81.6806 1.8911 80.8336 1.67941 80.6709 2.61792C80.6709 2.61792 80.305 3.24594 80.9962 3.83868C80.9962 3.83868 83.3882 4.98183 83.3882 9.37094V16.7096C83.3882 16.7096 83.7947 22.5383 81.8093 22.5383C81.8093 22.5383 80.9623 22.9193 79.4987 19.9274C78.035 16.9213 77.9537 16.8437 77.9537 16.8437C77.9537 16.8437 76.7814 12.9203 71.7128 12.751C71.7128 12.751 78.7194 11.5302 78.0757 6.04735C78.0757 6.04735 77.9469 1.86993 72.6818 1.69352H72.1194L72.1397 1.68646Z" fill="var(--fill-0, #999999)"/>
<path id="Vector_2" d="M167.708 9.80141C169.904 13.0474 170.188 14.5645 170.188 14.5645C168.44 14.8538 165.567 14.5222 165.567 14.5222C166.414 12.1583 167.708 9.80141 167.708 9.80141ZM186.072 16.6391C186.072 16.6391 186.227 22.1643 184.249 21.7833C184.249 21.7833 183.564 22.249 181.898 19.0877C180.237 15.9193 178.089 11.4103 174.606 2.63206C174.606 2.63206 173.875 0.176412 172.377 0.176412C172.377 0.176412 171.489 0.225807 170.554 0.769153C169.626 1.3125 166.665 3.04839 163.588 3.97278C163.588 3.97278 162.775 4.22681 163.019 5.07359C163.019 5.07359 162.89 5.70867 163.785 6.04738C164.679 6.37903 165.445 6.76008 165.689 7.2258C165.689 7.2258 164.761 10.3518 163.06 13.5554C161.352 16.7591 159.855 21.4445 155.843 23.5615C155.843 23.5615 155.071 23.7308 155.321 24.7046C155.606 25.7984 156.135 25.502 156.135 25.502C160.79 25.001 162.213 25.4173 163.27 25.502C164.327 25.5867 164.158 24.7046 164.158 24.7046C164.442 24.1542 164.076 23.8155 164.076 23.8155L163.636 23.2298C163.636 23.2298 161.894 22.7641 164.368 17.5776C164.368 17.5776 168.989 17.4506 171.503 17.4859C171.503 17.4859 172.438 19.13 172.438 21.12C172.438 23.1099 170.778 23.5685 170.778 23.5685C170.778 23.5685 170.087 23.8649 170.412 24.754C170.412 24.754 170.534 25.5937 171.347 25.5091C172.16 25.4244 185.611 24.8316 196.554 25.5514C196.554 25.5514 197.32 25.5937 197.53 24.881C197.53 24.881 197.977 23.9919 197.205 23.4839C197.205 23.4839 195.057 22.4748 194.894 18.8831C194.732 15.2984 194.779 8.49596 194.779 8.49596C194.779 8.49596 194.616 4.69959 196.927 3.52117C196.927 3.52117 197.537 3.2248 197.212 2.37802C197.212 2.37802 197.049 1.57359 196.317 1.65827C195.592 1.74294 187.928 2.16633 184.323 1.7006C184.323 1.7006 183.51 1.65827 183.348 2.37802C183.348 2.37802 182.948 3.05544 183.632 3.60585C184.317 4.14919 186.099 5.41935 186.099 9.34274V16.6462L186.072 16.6391Z" fill="var(--fill-0, #999999)"/>
<path id="Vector_3" d="M211.355 11.8618V7.73381C211.355 7.73381 211.436 4.65014 213.665 4.65014C215.895 4.65014 215.929 7.25397 215.82 8.11486C215.698 8.96163 215.495 11.8618 211.355 11.8618ZM218.327 1.36183C218.327 1.36183 209.41 2.45558 201.143 1.61587C201.143 1.61587 200.093 1.31949 199.971 2.45558C199.971 2.45558 199.889 3.21768 200.337 3.51405C200.784 3.80337 202.607 4.94651 202.722 8.91223C202.844 12.885 202.925 11.7419 202.844 17.1471C202.844 17.1471 203.169 22.3336 200.33 23.6038C200.33 23.6038 199.598 23.7731 199.998 24.8739C199.998 24.8739 200.242 25.7136 200.933 25.4173C200.933 25.4173 207.58 24.9515 213.333 25.4596C213.333 25.4596 213.984 25.7136 214.187 24.8245C214.187 24.8245 214.716 24.2388 213.903 23.6038C213.089 22.9687 211.633 21.8679 211.47 19.2147C211.307 16.5544 211.348 14.4445 211.348 14.4445H211.917C211.917 14.4445 213.821 14.1975 215.122 17.3165C216.416 20.4354 217.311 22.7146 217.311 22.7146C217.311 22.7146 218.158 25.2056 219.54 26.01C219.54 26.01 220.103 26.5604 222.21 26.3064C222.21 26.3064 225.659 26.0947 229.061 24.4505C229.061 24.4505 229.833 24.2812 229.589 23.3568C229.589 23.3568 229.752 22.6441 228.783 22.4253C227.814 22.2207 227.075 21.2469 226.398 19.8074C225.707 18.3749 224.65 16.2651 224.65 16.2651C224.65 16.2651 223.233 12.5886 218.612 12.5534C218.612 12.5534 224.975 11.4173 224.975 6.43542C224.975 1.45357 219.303 1.37595 219.303 1.37595H218.327V1.36183Z" fill="var(--fill-0, #999999)"/>
<path id="Vector_4" d="M45.6725 5.57459C49.7585 6.88709 52.74 10.8528 52.74 15.5454C52.74 16.2228 52.6723 16.9002 52.5571 17.5423L52.5435 17.6341C52.2318 19.4758 51.5136 21.1623 50.4904 22.6159L50.47 22.6371C52.2657 20.2591 53.3363 17.2601 53.3363 14C53.3363 6.27318 47.3191 0 39.8992 0C36.5179 0 33.428 1.29839 31.0631 3.4506L31.036 3.47883C29.1725 5.25705 28.007 7.81149 28.007 10.6482C28.007 11.8266 28.2036 12.9486 28.5762 14L28.5966 14.0494C29.5249 16.1804 31.5916 17.6623 33.9972 17.6623C37.2701 17.6623 39.9263 14.9032 39.9263 11.495L39.9128 8.83467C39.9128 7.61391 40.5633 6.55544 41.5323 6.00504H41.5458C42.298 5.56754 43.1585 5.32056 44.0869 5.32056C44.6425 5.32056 45.1846 5.4123 45.6861 5.58165H45.6928" fill="var(--fill-0, #999999)"/>
<path id="Vector_5" d="M29.6084 23.0039C32.0749 26.0594 35.7747 27.9999 39.9082 27.9999C43.2895 27.9999 46.3794 26.7015 48.7443 24.5493L48.7714 24.5211C50.6348 22.7428 51.8003 20.1884 51.8003 17.3517C51.8003 16.1803 51.597 15.0513 51.2311 14.014L51.2108 13.9646C50.2825 11.8265 48.2157 10.3446 45.817 10.3446C42.5441 10.3446 39.8878 13.1108 39.8878 16.519L39.9014 19.1793C39.9014 20.4001 39.2509 21.4656 38.2887 22.009H38.2751C37.523 22.4535 36.6624 22.7005 35.7408 22.7005C35.1852 22.7005 34.6431 22.6158 34.1417 22.4394C30.0488 21.1269 27.0741 17.1541 27.0741 12.4616C27.0741 11.7842 27.1351 11.1138 27.2571 10.4646L27.2706 10.3658C27.5823 8.52409 28.3006 6.83759 29.3238 5.38397L29.3441 5.3628C27.5417 7.74082 26.4778 10.7469 26.4778 14.0069C26.4778 16.2509 26.9928 18.3749 27.894 20.259L27.7856 20.3436C27.7856 20.3436 27.2571 20.76 26.2068 19.4969C25.1497 18.2338 18.9495 10.4223 18.9495 10.4223C18.9495 10.4223 22.8797 6.03316 26.7353 4.26199C26.7353 4.26199 27.745 3.92328 27.501 2.99183L27.3384 2.44848C27.3384 2.44848 27.2977 1.85574 26.41 1.98276C25.5156 2.10977 21.3076 2.44848 17.086 2.01804C17.086 2.01804 16.4355 2.01804 16.1984 2.5755C16.1984 2.5755 15.7918 3.2882 16.1984 3.71159C16.6049 4.13497 18.0618 5.18639 18.0618 6.61884C18.0618 6.61884 18.3803 7.67731 16.1509 9.3638C13.9216 11.0503 12.546 12.1511 11.6109 12.6521L11.6516 8.68638C11.6516 8.68638 11.5296 5.35574 13.8403 3.78215C13.8403 3.78215 14.4095 3.53518 14.2062 2.98477L14.0435 2.56844C14.0435 2.56844 13.9216 1.88397 13.2304 1.9757C13.2304 1.9757 9.22569 2.44143 1.2366 2.06038C1.2366 2.06038 0.708056 2.01804 0.504771 2.44143L0.34892 2.78014C0.34892 2.78014 0.0643206 3.54223 0.504771 3.88094C0.958774 4.2126 2.81544 5.35574 2.90353 8.85574C2.90353 8.85574 3.10004 15.4747 2.81544 18.0573C2.53084 20.633 2.33434 22.1078 0.34892 23.9213C0.34892 23.9213 -0.179621 24.3446 0.0643206 24.9797L0.34892 25.5231C0.34892 25.5231 0.552204 25.9465 1.24337 25.8618C1.92777 25.7771 6.91502 25.2761 13.2372 25.7771C13.2372 25.7771 13.6776 25.9465 13.8877 25.4807L14.1723 24.895C14.1723 24.895 14.4976 24.2952 13.8877 23.8366C13.2846 23.3709 11.6583 22.0231 11.6177 19.4051C11.577 16.7872 11.577 15.143 11.577 15.143C11.577 15.143 12.668 15.6088 18.509 24.5987C18.509 24.5987 20.5758 28.4797 24.9532 26.0664C24.9532 26.0664 28.1583 24.2529 29.4932 23.0674L29.6287 22.9827" fill="var(--fill-0, #C1C1C1)"/>
</g>
</svg>
