<svg preserveAspectRatio="xMidYMid meet" width="100%" height="100%" overflow="visible" style="display: block;" viewBox="0 0 231 22" fill="none" xmlns="http://www.w3.org/2000/svg">
<g id="_&#235;&#160;&#136;&#236;&#157;&#180;&#236;&#150;&#180;_1" clip-path="url(#clip0_0_389)">
<path id="Vector" d="M14.2805 21.5761L12.9562 17.1734H5.50195L4.17766 21.5761H0L7.1539 0.423866H11.277L18.4582 21.5761H14.2805ZM9.21543 5.07272L6.51223 13.7004H11.9186L9.20177 5.07272H9.21543Z" fill="var(--fill-0, #999999)"/>
<path id="Vector_2" d="M34.0356 18.6638C32.6567 21.1523 29.9672 21.9863 27.2777 21.9863C23.7144 21.9863 20.4241 20.5233 19.3729 16.8316C19.1408 16.0249 19.1135 15.2045 19.0452 14.3704H22.9635C23.0181 14.9447 23.1137 15.4779 23.3321 16.0249C24.0147 17.734 25.5711 18.445 27.3459 18.445C28.6839 18.445 30.7317 17.8844 30.7317 16.2026C30.7317 15.8471 30.6089 15.601 30.4587 15.2728C30.0082 14.3704 28.3699 13.7415 27.4961 13.386C25.694 12.6339 23.4277 11.8272 21.8986 10.665C20.4651 9.55749 19.7415 7.99876 19.7415 6.19391C19.7278 2.133 23.2638 0 26.9773 0C29.6259 0 32.452 1.13487 33.6124 3.71908C34.0629 4.6762 34.1858 5.57862 34.2404 6.61778H30.3222C30.3495 4.64885 28.7385 3.50031 26.8817 3.50031C25.5711 3.50031 23.7963 4.21131 23.7963 5.78372C23.7963 7.35612 25.653 7.82101 26.7862 8.27222C28.5746 8.98322 31.1004 9.8036 32.6567 10.9111C34.2131 12.0186 34.8411 13.6047 34.8411 15.4916C34.8411 16.5991 34.5681 17.7066 34.0356 18.6638Z" fill="var(--fill-0, #999999)"/>
<path id="Vector_3" d="M37.6262 21.5761V0.423866H41.6947V21.5761H37.6262Z" fill="var(--fill-0, #999999)"/>
<path id="Vector_4" d="M58.0777 21.5761L56.767 17.1734H49.3128L47.9885 21.5761H43.8108L50.9511 0.423866H55.0741L62.2553 21.5761H58.064H58.0777ZM53.0126 5.07272L50.3231 13.7004H55.7431L53.0262 5.07272H53.0126Z" fill="var(--fill-0, #999999)"/>
<path id="Vector_5" d="M76.4812 21.5761L67.6344 6.68614V21.5761H63.7707V0.423866H68.1122L76.6996 15.3275V0.423866H80.5633V21.5761H76.4949H76.4812Z" fill="var(--fill-0, #999999)"/>
<path id="Vector_6" d="M96.3319 21.5761L95.0213 17.1734H87.5807L86.2564 21.5761H82.0651L89.219 0.423866H93.342L100.523 21.5761H96.3319ZM91.2805 5.07272L88.5773 13.7004H93.9973L91.2668 5.07272H91.2805Z" fill="var(--fill-0, #999999)"/>
<g id="Group">
<path id="Vector_7" d="M124.32 21.5761L123.009 17.1734H115.568L114.244 21.5761H110.053L117.207 0.423866H121.33L128.511 21.5761H124.32ZM119.268 5.05904L116.579 13.6868H121.999L119.268 5.05904Z" fill="var(--fill-0, #999999)"/>
<path id="Vector_8" d="M130.695 21.5761V0.423866H134.764V21.5761H130.695Z" fill="var(--fill-0, #999999)"/>
<path id="Vector_9" d="M149.727 21.5761L145.426 13.4817H142.491V21.5761H138.423V0.423866H144.129C145.836 0.423866 147.638 0.369173 149.249 0.957116C151.911 1.91423 153.345 4.12927 153.345 6.91858C153.345 9.70789 152.061 11.6495 149.604 12.798L154.451 21.5761H149.713H149.727ZM147.57 4.27968C146.669 3.85581 145.413 3.88316 144.43 3.88316H142.477V9.99503H145.14C147.297 9.99503 149.181 9.39341 149.181 6.85022C149.181 5.68801 148.635 4.75823 147.57 4.266V4.27968Z" fill="var(--fill-0, #999999)"/>
<path id="Vector_10" d="M156.485 21.5761V0.423866H160.635V18.1032H169.823V21.5761H156.485Z" fill="var(--fill-0, #999999)"/>
<path id="Vector_11" d="M172.226 21.5761V0.423866H176.295V21.5761H172.226Z" fill="var(--fill-0, #999999)"/>
<path id="Vector_12" d="M192.664 21.5761L183.803 6.68614V21.5761H179.94V0.423866H184.281L192.869 15.3139V0.423866H196.732V21.5761H192.664Z" fill="var(--fill-0, #999999)"/>
<path id="Vector_13" d="M200.364 21.5761V0.423866H213.675V3.89683H204.432V8.87383H212.842V12.3468H204.432V18.0895H214.003V21.5625H200.364V21.5761Z" fill="var(--fill-0, #999999)"/>
<path id="Vector_14" d="M230.195 18.6774C228.816 21.1659 226.126 22 223.437 22C219.873 22 216.583 20.537 215.532 16.8452C215.3 16.0385 215.272 15.2181 215.204 14.3841H219.122C219.177 14.9584 219.273 15.4916 219.477 16.0385C220.16 17.7477 221.716 18.4587 223.491 18.4587C224.843 18.4587 226.877 17.8844 226.877 16.2163C226.877 15.8608 226.754 15.6147 226.604 15.2865C226.153 14.3841 224.515 13.7551 223.641 13.3996C221.839 12.6476 219.573 11.8409 218.044 10.6787C216.61 9.57116 215.887 8.01243 215.887 6.20758C215.887 2.133 219.423 0 223.123 0C225.798 0 228.611 1.14854 229.771 3.71908C230.222 4.6762 230.331 5.57862 230.399 6.63145H226.481C226.508 4.64885 224.897 3.51398 223.041 3.51398C221.73 3.51398 219.969 4.23866 219.969 5.79739C219.969 7.35612 221.826 7.83468 222.959 8.28589C224.761 9.01057 227.273 9.81728 228.816 10.9248C230.372 12.0323 231 13.6184 231 15.519C231 16.6265 230.727 17.734 230.195 18.6911V18.6774Z" fill="var(--fill-0, #999999)"/>
</g>
</g>
<defs>
<clipPath id="clip0_0_389">
<rect width="231" height="22" fill="white"/>
</clipPath>
</defs>
</svg>
