<svg preserveAspectRatio="xMidYMid meet" overflow="visible" style="display: block;" viewBox="0 0 87.9003 27.3443" fill="none" xmlns="http://www.w3.org/2000/svg">
<g id="Group">
<path id="Vector" d="M3.0613 26.8718H0V0.678581L3.0613 0V26.8718ZM11.258 7.86149L13.6562 9.62078L7.75796 17.1455L14.5886 25.4795L12.2203 27.3443L4.15819 17.3114L11.253 7.85646L11.258 7.86149Z" fill="var(--fill-0, #999999)"/>
<path id="Vector_2" d="M17.3008 21.8905C17.3008 20.0156 17.9191 18.5831 19.1506 17.6029C20.3821 16.6227 22.177 16.1301 24.5303 16.1301H28.0653V14.9439C28.0653 12.0737 26.8188 10.6412 24.3359 10.6412C23.5381 10.6412 22.7005 10.7517 21.823 10.9779C20.9455 11.2041 20.1428 11.4856 19.4099 11.8224L18.5074 9.62077C19.4198 9.10304 20.402 8.70092 21.459 8.41943C22.511 8.13795 23.5381 7.99721 24.5403 7.99721C28.848 7.99721 31.0019 10.3345 31.0019 15.0092V26.8668H28.7384L28.3694 24.8361C27.457 25.58 26.4848 26.1581 25.4527 26.5652C24.4206 26.9724 23.4384 27.1734 22.5061 27.1734C20.8857 27.1734 19.6143 26.7059 18.6919 25.766C17.7695 24.826 17.3058 23.5342 17.3058 21.8855M23.0595 24.6652C23.4783 24.6652 23.9171 24.6099 24.3708 24.4943C24.8245 24.3837 25.2782 24.2329 25.7319 24.0519C26.1856 23.871 26.6094 23.6498 27.0083 23.3935C27.4071 23.1321 27.7611 22.8556 28.0703 22.5641V18.2262H24.8843C23.2689 18.2262 22.0922 18.5077 21.3493 19.0706C20.6114 19.6336 20.2375 20.5283 20.2375 21.7498C20.2375 23.69 21.1748 24.6652 23.0545 24.6652" fill="var(--fill-0, #999999)"/>
<path id="Vector_3" d="M39.5127 26.8718H36.4514V0.678581L39.5127 0V26.8718ZM47.7045 7.86149L50.1027 9.62078L44.2094 17.1455L51.035 25.4795L48.6717 27.3443L40.6096 17.3114L47.7045 7.85646V7.86149Z" fill="var(--fill-0, #999999)"/>
<path id="Vector_4" d="M53.7471 21.8905C53.7471 20.0156 54.3653 18.5831 55.5968 17.6029C56.8283 16.6227 58.6232 16.1301 60.9765 16.1301H64.5065V14.9439C64.5065 12.0737 63.265 10.6411 60.7771 10.6411C59.9744 10.6411 59.1417 10.7517 58.2592 10.9779C57.3817 11.2041 56.574 11.4856 55.8461 11.8224L54.9437 9.62076C55.8561 9.10303 56.8383 8.70091 57.8903 8.41942C58.9423 8.13793 59.9694 7.99719 60.9715 7.99719C65.2793 7.99719 67.4332 10.3345 67.4332 15.0092V26.8668H65.1696L64.8007 24.8361C63.8883 25.58 62.921 26.158 61.8889 26.5652C60.8569 26.9723 59.8747 27.1734 58.9423 27.1734C57.3219 27.1734 56.0505 26.7059 55.1281 25.766C54.2058 24.826 53.7471 23.5342 53.7471 21.8855M59.5007 24.6652C59.9195 24.6652 60.3583 24.6099 60.812 24.4943C61.2657 24.3837 61.7194 24.2329 62.1731 24.0519C62.6268 23.871 63.0506 23.6498 63.4495 23.3934C63.8484 23.1321 64.2024 22.8556 64.5115 22.5641V18.2262H61.3305C59.7151 18.2262 58.5385 18.5077 57.7956 19.0706C57.0527 19.6336 56.6837 20.5283 56.6837 21.7498C56.6837 23.69 57.6211 24.6652 59.5007 24.6652Z" fill="var(--fill-0, #999999)"/>
<path id="Vector_5" d="M79.7684 8.03239C82.3012 8.03239 84.2855 8.8668 85.7314 10.5406C87.1773 12.2145 87.9003 14.6071 87.9003 17.7235C87.9003 20.84 87.1823 23.1572 85.7514 24.8059C84.3205 26.4546 82.3261 27.279 79.7734 27.279C77.2206 27.279 75.2562 26.4546 73.8103 24.8059C72.3644 23.1572 71.6415 20.7947 71.6415 17.7235C71.6415 14.6523 72.3694 12.2094 73.8253 10.5406C75.2811 8.87182 77.2605 8.03239 79.7734 8.03239M79.7734 10.5406C78.1729 10.5406 76.9464 11.1488 76.0938 12.3703C75.2363 13.5917 74.8125 15.3761 74.8125 17.7235C74.8125 20.0709 75.2412 21.8051 76.0938 22.9913C76.9464 24.1776 78.1729 24.7707 79.7734 24.7707C81.3738 24.7707 82.6303 24.1776 83.4878 22.9913C84.3404 21.8051 84.7692 20.0508 84.7692 17.7235C84.7692 15.3963 84.3404 13.5867 83.4878 12.3703C82.6303 11.1488 81.3938 10.5406 79.7734 10.5406Z" fill="var(--fill-0, #999999)"/>
</g>
</svg>
