<svg preserveAspectRatio="xMidYMid meet" width="100%" height="100%" overflow="visible" style="display: block;" viewBox="0 0 279 22.1667" fill="none" xmlns="http://www.w3.org/2000/svg">
<g id="Group 68">
<path id="Vector" d="M151.183 17.7862C150.415 18.6561 149.498 19.4017 148.434 20.0308C147.378 20.66 146.182 21.1493 144.861 21.5066C143.541 21.8638 142.096 22.0425 140.535 22.0425C138.523 22.0425 136.706 21.7551 135.083 21.1726C133.459 20.5901 132.077 19.8056 130.92 18.8192C129.77 17.8328 128.885 16.6678 128.271 15.3241C127.658 13.9804 127.347 12.5513 127.347 11.0212C127.347 9.49115 127.658 8.06204 128.271 6.71837C128.885 5.3747 129.77 4.20966 130.92 3.22326C132.069 2.23687 133.459 1.45241 135.083 0.869893C136.706 0.287375 138.523 0 140.535 0C142.073 0 143.51 0.170872 144.83 0.520382C146.151 0.869893 147.339 1.35144 148.387 1.96503C149.436 2.58638 150.352 3.31647 151.121 4.17083C151.89 5.02519 152.496 5.95721 152.931 6.97468H146.492C145.933 5.61547 145.125 4.51257 144.085 3.67374C143.044 2.82715 141.879 2.40774 140.589 2.40774C139.665 2.40774 138.795 2.63298 137.98 3.08346C137.164 3.53394 136.45 4.15529 135.844 4.93198C135.238 5.70867 134.756 6.62517 134.407 7.66593C134.05 8.7067 133.879 9.82513 133.879 11.0212C133.879 12.2173 134.057 13.3358 134.407 14.3765C134.756 15.4173 135.238 16.3338 135.844 17.1105C136.45 17.8872 137.164 18.5085 137.98 18.959C138.795 19.4095 139.665 19.6347 140.589 19.6347C141.894 19.6347 143.075 19.2076 144.123 18.3454C145.172 17.4833 145.98 16.3493 146.547 14.9358H152.985C152.55 15.9688 151.945 16.9241 151.176 17.794" fill="var(--fill-0, #999999)"/>
<path id="Vector_2" d="M163.919 0.846588H157.34V21.1881H163.919V0.846588Z" fill="var(--fill-0, #999999)"/>
<path id="Vector_3" d="M192.26 20.7066C191.942 21.0405 191.476 21.2114 190.862 21.2114H187.545C186.909 21.2114 186.365 21.0405 185.899 20.6988C185.441 20.357 185.06 19.9532 184.773 19.5027L176.074 5.22712V21.2192H169.658V2.58637C169.658 2.11259 169.814 1.70871 170.117 1.37474C170.427 1.04076 170.885 0.869888 171.507 0.869888H175.064C175.678 0.869888 176.221 1.04076 176.695 1.3825C177.169 1.72425 177.549 2.12813 177.837 2.57861L186.318 16.3105V0.869888H192.734V19.4949C192.734 19.9687 192.571 20.3726 192.26 20.7066Z" fill="var(--fill-0, #999999)"/>
<path id="Vector_4" d="M217.559 8.59019V10.9902H204.837V16.4736C204.837 17.2891 204.992 17.8716 205.311 18.2211C205.629 18.5784 206.134 18.7493 206.817 18.7493H217.745V21.1493H201.38C201.015 21.1493 200.65 21.1027 200.278 21.0172C199.905 20.924 199.579 20.7609 199.283 20.5124C198.996 20.2716 198.755 19.9376 198.577 19.5182C198.398 19.0988 198.305 18.5551 198.305 17.8872V4.10869C198.305 3.45627 198.398 2.92035 198.577 2.49317C198.755 2.06599 198.996 1.73201 199.283 1.48347C199.571 1.23493 199.905 1.07183 200.278 0.978625C200.65 0.885423 201.015 0.846588 201.38 0.846588H217.745V3.24656H206.817C206.126 3.24656 205.629 3.4252 205.311 3.77471C204.992 4.12422 204.837 4.70674 204.837 5.52226V8.58242H217.559V8.59019Z" fill="var(--fill-0, #999999)"/>
<path id="Vector_5" d="M234.07 21.1803C233.876 21.1881 233.69 21.1493 233.496 21.0483C233.309 20.9473 233.123 20.7842 232.936 20.5435C232.758 20.3104 232.571 19.9454 232.393 19.4561L227.142 6.18245V21.1959H223.523V2.53201C223.523 2.05822 223.678 1.66211 223.981 1.3359C224.292 1.00969 224.758 0.846588 225.395 0.846588H229.309C229.946 0.846588 230.474 1.00969 230.902 1.3359C231.329 1.66211 231.632 2.05822 231.81 2.53201L236.082 14.1125L240.649 2.53201C240.828 2.05822 241.131 1.66211 241.55 1.3359C241.969 1.00969 242.49 0.846588 243.127 0.846588H247.344C247.981 0.846588 248.447 1.00969 248.758 1.3359C249.068 1.66211 249.224 2.05822 249.224 2.53201V21.1881H242.808V6.12808L237.534 19.6736C237.387 20.0697 237.232 20.3726 237.076 20.5745C236.913 20.7765 236.75 20.9163 236.571 21.0095C236.4 21.1027 236.214 21.1493 236.028 21.157C235.834 21.1648 235.647 21.1726 235.468 21.1726H234.684C234.467 21.1726 234.265 21.1726 234.07 21.1881" fill="var(--fill-0, #999999)"/>
<path id="Vector_6" d="M272.414 21.1881L270.348 17.1105H258.69L256.592 21.1881H252.6L262.853 2.15921C263.055 1.76309 263.342 1.43688 263.738 1.19611C264.126 0.94757 264.561 0.831066 265.027 0.831066H267.225C267.699 0.831066 268.134 0.955336 268.53 1.19611C268.926 1.44465 269.229 1.76309 269.431 2.15921L279 21.1881H272.421H272.414ZM259.909 14.7105H269.121L265.618 7.80574C265.47 7.54944 265.338 7.36303 265.222 7.23099C265.105 7.10672 264.989 7.00575 264.88 6.93585C264.756 6.86595 264.631 6.81935 264.522 6.80381C264.414 6.81935 264.297 6.86595 264.165 6.93585C264.056 7.00575 263.932 7.10672 263.8 7.23099C263.668 7.35526 263.536 7.54944 263.404 7.80574L259.901 14.7105H259.909Z" fill="var(--fill-0, #999999)"/>
<path id="Vector_7" d="M31.0443 0.411644C23.1687 0.411644 18.4464 5.28149 18.4464 11.2931C18.4464 17.3047 23.1687 22.1667 31.0443 22.1667C38.92 22.1667 43.6578 17.3047 43.6578 11.2931C43.6578 5.28149 38.9355 0.411644 31.0443 0.411644ZM31.0443 19.8367C27.2696 19.8367 24.3958 16.0076 24.3958 11.2931C24.3958 6.57856 27.2696 2.74948 31.0443 2.74948C34.819 2.74948 37.7005 6.5708 37.7005 11.2931C37.7005 16.0154 34.8268 19.8367 31.0443 19.8367Z" fill="var(--fill-0, #999999)"/>
<path id="Vector_8" d="M44.7325 3.61938H53.0353V21.2658H59.2877V3.61938H66.2857V1.21164H44.7325V3.61938Z" fill="var(--fill-0, #999999)"/>
<path id="Vector_9" d="M68.5672 3.61938H75.5652V21.2658H81.8098V3.61938H90.1203V1.21164H68.5672V3.61938Z" fill="var(--fill-0, #999999)"/>
<path id="Vector_10" d="M6.00382 17.6697V1.21164H0V18.8813C0 20.2017 1.07183 21.2658 2.39221 21.2658H17.7318V18.8658H7.19992C6.53973 18.8658 6.00382 18.3299 6.00382 17.6697Z" fill="var(--fill-0, #999999)"/>
<path id="Vector_11" d="M93.514 3.59607V18.8813C93.514 20.2017 94.5858 21.2658 95.9062 21.2658H112.256V18.8969H100.714C100.054 18.8969 99.5178 18.361 99.5178 17.7008V11.7902H112.069V9.44455H99.5178V4.76888C99.5178 4.11646 100.046 3.57277 100.714 3.57277H112.256V1.21164H95.8984C94.5781 1.21164 93.5062 2.2757 93.5062 3.59607" fill="var(--fill-0, #999999)"/>
</g>
</svg>
