<svg preserveAspectRatio="xMidYMid meet" overflow="visible" style="display: block;" viewBox="0 0 126.416 36" fill="none" xmlns="http://www.w3.org/2000/svg">
<g id="Group">
<path id="Vector" d="M0 9.53533H3.31559L3.97869 11.3298C5.47943 9.852 7.64329 8.97235 9.70244 8.97235C11.9361 8.97235 13.5415 9.74644 14.4489 11.3298C15.9846 9.81681 18.0786 8.97235 20.1029 8.97235C23.7675 8.97235 25.7568 11.0835 25.7568 15.7632V28.0782H21.0801V16.0447C21.0801 13.9687 20.3123 13.0891 18.1484 13.0891C17.1712 13.0891 15.9846 13.3002 15.2168 13.6169V28.0782H10.5401V16.0447C10.5401 13.9687 9.80714 13.0891 7.64329 13.0891C6.84057 13.0891 5.44453 13.3002 4.67672 13.6169V28.0782H0V9.53533Z" fill="var(--fill-0, #999999)"/>
<path id="Vector_2" d="M46.3284 18.9299C46.3284 24.9115 43.0826 28.606 37.6381 28.606C32.1935 28.606 28.9129 24.9115 28.9129 18.9299C28.9129 12.9483 32.2633 8.97235 37.6381 8.97235C43.0128 8.97235 46.3284 12.7724 46.3284 18.9299ZM33.6943 18.9651C33.6943 22.9059 34.9856 24.9467 37.6381 24.9467C40.2905 24.9467 41.547 22.9059 41.547 18.9651C41.547 15.0243 40.2905 12.6317 37.6381 12.6317C34.9856 12.6317 33.6943 14.8484 33.6943 18.9651Z" fill="var(--fill-0, #999999)"/>
<path id="Vector_3" d="M49.6938 27.5202V1.82966L54.3705 0.985199V10.1687C55.4874 9.46495 56.9532 8.97235 58.5586 8.97235C63.5146 8.97235 65.818 12.3854 65.818 18.3318C65.818 24.7707 62.3279 28.606 56.5344 28.606C53.847 28.606 50.9852 28.0782 49.6938 27.5152V27.5202ZM54.3705 13.1997V24.9517C55.1035 25.0572 55.5921 25.0572 56.0458 25.0572C58.9774 25.0572 61.0715 23.1924 61.0715 18.4423C61.0715 14.8534 60.199 12.7774 56.8834 12.7774C55.8364 12.7774 54.929 13.0237 54.3705 13.1997Z" fill="var(--fill-0, #999999)"/>
<path id="Vector_4" d="M67.9619 3.48338L71.3822 0L74.8025 3.48338L71.3822 6.93158L67.9619 3.48338ZM73.7206 9.53532V28.0782H69.0438V9.53532H73.7206Z" fill="var(--fill-0, #999999)"/>
<path id="Vector_5" d="M82.5256 28.0832H77.8488V1.82966L82.5256 0.985199V28.0832Z" fill="var(--fill-0, #999999)"/>
<path id="Vector_6" d="M85.5669 3.48338L88.9872 0L92.4075 3.48338L88.9872 6.93158L85.5669 3.48338ZM91.3256 9.53532V28.0782H86.6488V9.53532H91.3256Z" fill="var(--fill-0, #999999)"/>
<path id="Vector_7" d="M93.6988 9.88718L96.6305 9.53532V5.80564L101.377 4.78526V9.53532H106.891V13.0891H101.377V21.1466C101.377 24.0318 102.11 24.5596 103.471 24.5596C104.413 24.5596 105.46 24.3133 106.507 23.9263L107.589 27.2337C106.612 27.8671 104.413 28.606 102.215 28.606C98.3406 28.606 96.6305 26.2133 96.6305 21.4633V13.0891H93.6988V9.88718Z" fill="var(--fill-0, #999999)"/>
<path id="Vector_8" d="M120.692 26.148C119.017 30.8277 116.888 34.1 113.956 36L111.059 33.3259C113.049 31.5666 114.235 30.1944 115.317 28.1888L108.826 10.1385L113.468 8.87182L117.656 23.4739L121.809 8.83664L126.416 10.1737L120.692 26.148Z" fill="var(--fill-0, #999999)"/>
</g>
</svg>
