<svg preserveAspectRatio="none" width="100%" height="100%" overflow="visible" style="display: block;" viewBox="0 0 14.9736 15" fill="none" xmlns="http://www.w3.org/2000/svg">
<path id="Union" d="M7.48676 0C11.6193 0 14.9736 3.3602 14.9736 7.5C14.9736 11.6398 11.6193 15 7.48676 15C3.35428 15 1.02964e-06 11.6398 0 7.5C0 3.36022 3.35428 2.54446e-05 7.48676 0ZM7.48676 2.77556C4.88384 2.77558 2.77061 4.89248 2.77061 7.5C2.77061 8.29973 2.97191 9.05913 3.32746 9.71773L2.16693 12.332L4.74295 11.3374C5.51443 11.8952 6.46036 12.2244 7.48676 12.2244C10.0897 12.2244 12.2029 10.1075 12.2029 7.5C12.2029 4.89246 10.0897 2.77556 7.48676 2.77556ZM7.50689 8.9382C7.8289 8.9382 8.06374 9.18015 8.06374 9.48257C8.06372 9.78497 7.8356 10.0336 7.50689 10.0336C7.1782 10.0336 6.93671 9.78496 6.93669 9.48257C6.93669 9.18016 7.17818 8.93822 7.50689 8.9382ZM7.84903 8.3468H7.15129L6.98361 5.04032H8.02349L7.84903 8.3468Z" fill="var(--fill-0, #101820)"/>
</svg>
